<?xml version="1.0" encoding="UTF-8" standalone="no"?><!-- Generator: Gravit.io --><svg xmlns="http://www.w3.org/2000/svg" xmlns:xlink="http://www.w3.org/1999/xlink" style="isolation:isolate" viewBox="969.335 152.038 978.462 954.891" width="978.462pt" height="954.891pt"><defs><clipPath id="_clipPath_1xv0XSM1rxUCPv9jiZUdmfSULbNuZ28W"><rect x="969.335" y="152.038" width="978.462" height="954.891"/></clipPath></defs><g clip-path="url(#_clipPath_1xv0XSM1rxUCPv9jiZUdmfSULbNuZ28W)"><g filter="url(#erP22tFoCziv0evhhDglifAXHIdDhY00)"><g><path d=" M 1630.511 653.012 C 1613.049 670.474 1590.856 658.608 1583.646 651.398 L 1404.256 472.008 L 1389.841 469.328 L 1367.216 446.703 C 1363.052 442.54 1356.295 442.54 1352.132 446.703 L 1170.122 628.712 C 1165.959 632.875 1165.959 639.633 1170.122 643.796 L 1382.299 855.973 C 1403.09 876.763 1436.927 876.763 1457.718 855.973 L 1647.289 666.401 C 1651.457 662.233 1649.758 657.175 1645.595 653.012 C 1641.432 648.849 1634.674 648.849 1630.511 653.012 Z " fill="rgb(230,117,226)" fill-opacity="0.76"/></g><g><g><g><g><path d=" M 1352.132 507.037 L 1230.457 628.712 C 1226.294 632.875 1226.294 639.633 1230.457 643.796 L 1275.708 689.047 C 1279.871 693.21 1286.629 693.21 1290.792 689.047 L 1412.467 567.372 C 1416.63 563.209 1416.63 556.451 1412.467 552.288 L 1367.216 507.037 C 1363.052 502.874 1356.295 502.874 1352.132 507.037 L 1352.132 507.037 Z " fill="rgb(223,231,244)"/></g></g></g></g><path d=" M 1367.216 507.037 L 1412.467 552.288 C 1416.63 556.451 1416.63 563.209 1412.467 567.372 L 1351.629 628.209 L 1291.294 567.875 L 1352.132 507.037 C 1356.295 502.874 1363.052 502.874 1367.216 507.037 L 1367.216 507.037 Z " fill="rgb(199,207,225)"/><g><path d=" M 1458.723 613.629 L 1412.467 659.885 C 1408.301 664.05 1401.548 664.05 1397.383 659.885 C 1393.218 655.72 1393.218 648.967 1397.383 644.801 L 1443.639 598.545 C 1447.805 594.38 1454.558 594.38 1458.723 598.545 C 1462.888 602.71 1462.888 609.463 1458.723 613.629 Z " fill="rgb(70,69,85)"/></g><g><path d=" M 1382.299 690.052 L 1337.048 735.303 C 1332.883 739.469 1326.13 739.469 1321.965 735.303 C 1317.799 731.138 1317.799 724.385 1321.965 720.22 L 1367.216 674.969 C 1371.381 670.804 1378.134 670.804 1382.299 674.969 C 1386.464 679.134 1386.464 685.887 1382.299 690.052 Z " fill="rgb(89,108,118)"/></g><g><path d=" M 1503.974 658.88 L 1457.718 705.136 C 1453.552 709.301 1446.799 709.301 1442.634 705.136 C 1438.469 700.971 1438.469 694.218 1442.634 690.052 L 1488.89 643.796 C 1493.056 639.631 1499.809 639.631 1503.974 643.796 C 1508.139 647.961 1508.139 654.714 1503.974 658.88 Z " fill="rgb(70,69,85)"/></g><g><path d=" M 1549.225 704.131 L 1502.969 750.387 C 1498.803 754.552 1492.05 754.552 1487.885 750.387 C 1483.72 746.222 1483.72 739.469 1487.885 735.303 L 1534.141 689.047 C 1538.307 684.882 1545.06 684.882 1549.225 689.047 C 1553.39 693.212 1553.39 699.965 1549.225 704.131 Z " fill="rgb(70,69,85)"/></g><g><path d=" M 1559.281 588.489 L 1541.683 606.087 C 1537.518 610.252 1530.765 610.252 1526.6 606.087 L 1389.841 469.328 L 1429.84 429.329 C 1434.029 425.141 1440.905 424.901 1445.113 429.07 C 1449.32 433.239 1449.325 440.033 1445.128 444.208 C 1440.979 448.337 1441.208 455.333 1445.347 459.472 L 1559.281 573.406 C 1563.447 577.571 1563.446 584.324 1559.281 588.489 L 1559.281 588.489 Z " fill="rgb(221,156,219)"/></g><g><g><g><g><path d=" M 1472.801 780.554 L 1427.55 825.805 C 1423.385 829.971 1416.632 829.971 1412.467 825.805 L 1367.216 780.554 C 1363.05 776.389 1363.05 769.636 1367.216 765.471 L 1412.467 720.22 C 1416.632 716.055 1423.385 716.055 1427.55 720.22 L 1472.801 765.471 C 1476.967 769.636 1476.966 776.389 1472.801 780.554 Z " fill="rgb(223,231,244)"/></g></g></g></g><g><g><g><g><path d=" M 1586.912 666.399 L 1526.6 606.087 L 1541.683 591.003 C 1545.848 586.838 1545.848 580.084 1541.683 575.919 L 1431.321 465.557 C 1420.908 455.144 1420.908 438.261 1431.321 427.848 C 1441.734 417.435 1458.617 417.435 1469.03 427.848 L 1647.284 606.012 C 1663.964 622.684 1663.968 649.723 1647.292 666.399 C 1630.618 683.072 1603.586 683.073 1586.912 666.399 L 1586.912 666.399 Z " fill="rgb(174,82,122)"/></g></g></g></g></g><defs><filter id="erP22tFoCziv0evhhDglifAXHIdDhY00" x="-200%" y="-200%" width="400%" height="400%" filterUnits="objectBoundingBox" color-interpolation-filters="sRGB"><feGaussianBlur xmlns="http://www.w3.org/2000/svg" in="SourceGraphic" stdDeviation="10.73402265709757"/><feOffset xmlns="http://www.w3.org/2000/svg" dx="15" dy="5" result="pf_100_offsetBlur"/><feFlood xmlns="http://www.w3.org/2000/svg" flood-color="#000000" flood-opacity="0.45"/><feComposite xmlns="http://www.w3.org/2000/svg" in2="pf_100_offsetBlur" operator="in" result="pf_100_dropShadow"/><feBlend xmlns="http://www.w3.org/2000/svg" in="SourceGraphic" in2="pf_100_dropShadow" mode="normal"/></filter></defs><g filter="url(#NvKBN2cClpZMtqekhBOAf9hUw9J9O6ST)"><g><path d=" M 1625.032 420.038 C 1607.016 420.237 1589.136 423.182 1572.009 428.771 C 1571.531 428.922 1571.112 429.217 1570.807 429.615 C 1564.728 437.119 1560.157 445.729 1557.346 454.969 C 1556.707 457.556 1554.091 459.135 1551.504 458.496 C 1548.916 457.856 1547.337 455.24 1547.977 452.653 C 1549.044 448.533 1550.549 444.539 1552.469 440.741 C 1552.922 439.838 1552.764 438.748 1552.074 438.011 C 1551.384 437.273 1550.307 437.044 1549.376 437.436 C 1537.701 442.691 1526.524 448.989 1515.98 456.252 C 1515.649 456.476 1515.385 456.784 1515.213 457.145 C 1508.407 471.158 1504.723 486.482 1504.415 502.057 C 1504.415 504.722 1502.255 506.882 1499.59 506.882 C 1496.926 506.882 1494.766 504.722 1494.766 502.057 C 1494.816 493.227 1495.972 484.437 1498.206 475.893 C 1498.462 474.856 1498.005 473.774 1497.084 473.234 C 1496.163 472.694 1494.996 472.824 1494.216 473.553 C 1489.485 477.846 1484.976 482.378 1480.707 487.13 C 1480.444 487.428 1480.256 487.786 1480.161 488.172 C 1475.811 505.46 1472.688 523.033 1470.816 540.761 C 1470.759 541.687 1470.169 542.496 1469.304 542.834 C 1468.439 543.171 1467.457 542.976 1466.788 542.334 C 1461.704 537.908 1458.133 532.004 1456.574 525.447 C 1456.429 524.611 1455.843 523.918 1455.043 523.635 C 1454.242 523.353 1453.351 523.526 1452.714 524.087 C 1443.533 532.298 1420.292 559.992 1432.045 622.674 L 1452.502 639.753 C 1462.73 642.04 1478.01 641.625 1500.83 634.958 C 1501.82 634.67 1502.523 633.792 1502.588 632.763 C 1502.653 631.734 1502.066 630.774 1501.12 630.364 C 1494.177 627.222 1488.921 621.247 1486.689 613.961 C 1486.349 613.043 1486.597 612.012 1487.316 611.349 C 1488.035 610.686 1489.083 610.522 1489.97 610.936 C 1505.242 617.523 1522.403 618.266 1538.188 613.025 C 1558.91 597.897 1578.605 581.408 1597.14 563.668 C 1597.8 563.032 1598.032 562.072 1597.738 561.204 C 1597.444 560.336 1596.676 559.715 1595.765 559.611 C 1583.619 558.585 1572.064 553.925 1562.605 546.237 C 1561.828 545.532 1561.596 544.407 1562.03 543.452 C 1562.464 542.497 1563.465 541.932 1564.506 542.054 C 1576.539 544.071 1601.174 546.478 1615.382 535.83 C 1622.783 530.084 1629.704 523.744 1636.075 516.874 C 1636.812 516.112 1636.966 514.959 1636.453 514.031 C 1635.941 513.103 1634.884 512.618 1633.846 512.836 C 1623.028 515.225 1611.987 516.463 1600.908 516.531 C 1598.244 516.531 1596.084 514.371 1596.084 511.707 C 1596.084 509.042 1598.244 506.882 1600.908 506.882 C 1618.331 506.666 1635.597 503.55 1651.997 497.662 C 1652.383 497.521 1652.785 497.426 1653.193 497.377 C 1659.036 490.271 1664.29 483.482 1668.454 477.934 C 1677.741 464.986 1685.569 451.052 1691.795 436.384 C 1692.265 435.272 1691.841 433.983 1690.801 433.369 C 1685.05 429.943 1664.946 420.038 1625.032 420.038 L 1625.032 420.038 Z " fill="rgb(0,25,123)"/><path d=" M 1691.805 436.394 C 1691.732 436.551 1691.668 436.712 1691.612 436.876 C 1645.077 445.839 1601.279 465.549 1563.71 494.434 C 1525.797 523.692 1492.293 558.253 1464.226 597.055 C 1456.03 607.805 1448.459 619.016 1441.55 630.635 L 1432.045 622.674 C 1420.273 560.002 1443.528 532.308 1452.695 524.106 C 1453.325 523.529 1454.222 523.345 1455.029 523.627 C 1455.835 523.91 1456.422 524.613 1456.554 525.457 C 1458.124 532.013 1461.7 537.916 1466.783 542.343 C 1467.455 542.976 1468.433 543.163 1469.292 542.821 C 1470.15 542.48 1470.733 541.673 1470.787 540.751 C 1472.664 523.023 1475.792 505.45 1480.147 488.162 C 1480.245 487.789 1480.426 487.442 1480.678 487.149 C 1484.964 482.388 1489.489 477.847 1494.235 473.544 C 1495.022 472.837 1496.177 472.725 1497.085 473.267 C 1497.992 473.81 1498.441 474.88 1498.191 475.908 C 1495.957 484.446 1494.806 493.232 1494.766 502.057 C 1494.766 504.722 1496.926 506.882 1499.59 506.882 C 1502.255 506.882 1504.415 504.722 1504.415 502.057 C 1504.714 486.478 1508.402 471.15 1515.222 457.14 C 1515.397 456.786 1515.664 456.486 1515.994 456.271 C 1526.526 448.995 1537.702 442.696 1549.381 437.455 C 1550.308 437.032 1551.402 437.246 1552.101 437.989 C 1552.799 438.731 1552.947 439.836 1552.469 440.736 C 1550.539 444.531 1549.034 448.528 1547.982 452.653 C 1547.491 454.352 1547.969 456.183 1549.227 457.425 C 1550.485 458.668 1552.322 459.122 1554.015 458.61 C 1555.707 458.098 1556.984 456.7 1557.342 454.969 C 1560.13 445.727 1564.703 437.121 1570.802 429.639 C 1571.09 429.217 1571.517 428.91 1572.009 428.771 C 1589.14 423.196 1607.017 420.252 1625.032 420.038 C 1664.932 420.038 1685.05 429.929 1690.792 433.354 C 1691.851 433.964 1692.286 435.27 1691.805 436.394 Z " fill="rgb(112,130,253)"/><path d=" M 1421.238 693.075 C 1419.729 694.283 1417.646 694.474 1415.943 693.561 C 1414.241 692.648 1413.246 690.807 1413.417 688.883 C 1415.635 665.88 1421.943 643.458 1432.045 622.674 C 1448.357 590.05 1516.375 509.164 1580.741 479.087 C 1582.991 478.015 1585.687 478.833 1586.962 480.974 C 1588.237 483.115 1587.672 485.875 1585.658 487.342 C 1550.109 512.701 1490.501 563.659 1451.344 641.973 C 1446.341 652.165 1442.166 662.742 1438.858 673.603 C 1437.442 678.25 1434.656 682.36 1430.863 685.395 L 1421.238 693.075 Z " fill="rgb(70,69,85)"/></g></g><defs><filter id="NvKBN2cClpZMtqekhBOAf9hUw9J9O6ST" x="-200%" y="-200%" width="400%" height="400%" filterUnits="objectBoundingBox" color-interpolation-filters="sRGB"><feGaussianBlur xmlns="http://www.w3.org/2000/svg" in="SourceGraphic" stdDeviation="10.73402265709757"/><feOffset xmlns="http://www.w3.org/2000/svg" dx="15" dy="5" result="pf_100_offsetBlur"/><feFlood xmlns="http://www.w3.org/2000/svg" flood-color="#000000" flood-opacity="0.45"/><feComposite xmlns="http://www.w3.org/2000/svg" in2="pf_100_offsetBlur" operator="in" result="pf_100_dropShadow"/><feBlend xmlns="http://www.w3.org/2000/svg" in="SourceGraphic" in2="pf_100_dropShadow" mode="normal"/></filter></defs></g></svg>