<?xml version="1.0" encoding="UTF-8" standalone="no"?><!-- Generator: Gravit.io --><svg xmlns="http://www.w3.org/2000/svg" xmlns:xlink="http://www.w3.org/1999/xlink" style="isolation:isolate" viewBox="674.045 84.96 1154.095 1120.952" width="1154.095pt" height="1120.952pt"><defs><clipPath id="_clipPath_VHZl29zUIit2bLAXSJL1IBO1hJsCDlNz"><rect x="674.045" y="84.96" width="1154.095" height="1120.952"/></clipPath></defs><g clip-path="url(#_clipPath_VHZl29zUIit2bLAXSJL1IBO1hJsCDlNz)"><g filter="url(#PbLDrBrG6TV9MSCWkNjZ6Pj65ICBBfYJ)"><g><path d=" M 1498.961 680.551 C 1474.408 705.104 1443.202 688.419 1433.064 678.281 L 1180.819 426.037 L 1160.55 422.268 L 1128.735 390.454 C 1122.881 384.6 1113.38 384.6 1107.526 390.454 L 851.598 646.382 C 845.744 652.236 845.744 661.738 851.598 667.592 L 1149.945 965.939 C 1179.179 995.173 1226.759 995.173 1255.992 965.939 L 1522.554 699.378 C 1528.414 693.517 1526.025 686.405 1520.171 680.551 C 1514.317 674.697 1504.815 674.697 1498.961 680.551 Z " fill="rgb(230,117,226)" fill-opacity="0.76"/></g><g><g><g><g><path d=" M 1107.526 475.292 L 936.436 646.382 C 930.582 652.236 930.582 661.738 936.436 667.592 L 1000.064 731.22 C 1005.918 737.074 1015.42 737.074 1021.274 731.22 L 1192.364 560.13 C 1198.218 554.276 1198.218 544.774 1192.364 538.921 L 1128.735 475.292 C 1122.881 469.438 1113.38 469.438 1107.526 475.292 L 1107.526 475.292 Z " fill="rgb(223,231,244)"/></g></g></g></g><path d=" M 1128.735 475.292 L 1192.364 538.921 C 1198.218 544.774 1198.218 554.276 1192.364 560.13 L 1106.819 645.675 L 1021.981 560.837 L 1107.526 475.292 C 1113.38 469.438 1122.881 469.438 1128.735 475.292 L 1128.735 475.292 Z " fill="rgb(199,207,225)"/><g><path d=" M 1257.406 625.173 L 1192.364 690.215 C 1186.507 696.072 1177.011 696.072 1171.154 690.215 C 1165.298 684.359 1165.298 674.862 1171.154 669.006 L 1236.197 603.963 C 1242.053 598.107 1251.55 598.107 1257.406 603.963 C 1263.263 609.82 1263.263 619.316 1257.406 625.173 Z " fill="rgb(70,69,85)"/></g><g><path d=" M 1149.945 732.634 L 1086.316 796.263 C 1080.46 802.119 1070.963 802.119 1065.107 796.263 C 1059.25 790.406 1059.25 780.91 1065.107 775.053 L 1128.735 711.425 C 1134.592 705.568 1144.088 705.568 1149.945 711.425 C 1155.801 717.281 1155.801 726.778 1149.945 732.634 Z " fill="rgb(89,108,118)"/></g><g><path d=" M 1321.035 688.801 L 1255.992 753.844 C 1250.136 759.7 1240.639 759.7 1234.783 753.844 C 1228.926 747.987 1228.926 738.491 1234.783 732.634 L 1299.825 667.592 C 1305.682 661.735 1315.178 661.735 1321.035 667.592 C 1326.892 673.448 1326.892 682.945 1321.035 688.801 Z " fill="rgb(70,69,85)"/></g><g><path d=" M 1384.663 752.43 L 1319.621 817.472 C 1313.764 823.329 1304.268 823.329 1298.411 817.472 C 1292.555 811.616 1292.555 802.119 1298.411 796.263 L 1363.454 731.22 C 1369.311 725.364 1378.807 725.364 1384.663 731.22 C 1390.52 737.077 1390.52 746.573 1384.663 752.43 Z " fill="rgb(70,69,85)"/></g><g><path d=" M 1398.803 589.823 L 1374.059 614.568 C 1368.202 620.425 1358.706 620.425 1352.849 614.568 L 1160.55 422.268 L 1216.793 366.025 C 1222.683 360.135 1232.352 359.798 1238.269 365.661 C 1244.184 371.522 1244.191 381.076 1238.29 386.947 C 1232.456 392.752 1232.779 402.589 1238.598 408.409 L 1398.804 568.615 C 1404.66 574.471 1404.66 583.967 1398.803 589.823 L 1398.803 589.823 Z " fill="rgb(221,156,219)"/></g><g><g><g><g><path d=" M 1277.202 859.891 L 1213.573 923.52 C 1207.717 929.377 1198.22 929.377 1192.364 923.52 L 1128.735 859.891 C 1122.879 854.035 1122.879 844.538 1128.735 838.682 L 1192.364 775.053 C 1198.22 769.197 1207.717 769.197 1213.573 775.053 L 1277.202 838.682 C 1283.059 844.539 1283.059 854.035 1277.202 859.891 Z " fill="rgb(223,231,244)"/></g></g></g></g><g><g><g><g><path d=" M 1437.656 699.375 L 1352.849 614.568 L 1374.059 593.358 C 1379.915 587.502 1379.915 578.006 1374.059 572.149 L 1218.876 416.966 C 1204.233 402.324 1204.233 378.584 1218.876 363.942 C 1233.518 349.3 1257.257 349.3 1271.899 363.942 L 1522.546 614.463 C 1546.001 637.906 1546.006 675.926 1522.557 699.374 C 1499.112 722.819 1461.101 722.82 1437.656 699.375 L 1437.656 699.375 Z " fill="rgb(174,82,122)"/></g></g></g></g></g><defs><filter id="PbLDrBrG6TV9MSCWkNjZ6Pj65ICBBfYJ" x="-200%" y="-200%" width="400%" height="400%" filterUnits="objectBoundingBox" color-interpolation-filters="sRGB"><feGaussianBlur xmlns="http://www.w3.org/2000/svg" in="SourceGraphic" stdDeviation="10.73402265709757"/><feOffset xmlns="http://www.w3.org/2000/svg" dx="15" dy="5" result="pf_100_offsetBlur"/><feFlood xmlns="http://www.w3.org/2000/svg" flood-color="#000000" flood-opacity="0.45"/><feComposite xmlns="http://www.w3.org/2000/svg" in2="pf_100_offsetBlur" operator="in" result="pf_100_dropShadow"/><feBlend xmlns="http://www.w3.org/2000/svg" in="SourceGraphic" in2="pf_100_dropShadow" mode="normal"/></filter></defs><g filter="url(#af6qeBuXXFRsfAZGMTQi3GDuzR8lK0Yo)"><g><path d=" M 1491.257 352.96 C 1465.925 353.24 1440.783 357.381 1416.7 365.24 C 1416.028 365.453 1415.438 365.867 1415.011 366.427 C 1406.462 376.979 1400.035 389.085 1396.083 402.077 C 1395.184 405.715 1391.506 407.935 1387.867 407.036 C 1384.229 406.137 1382.009 402.459 1382.908 398.821 C 1384.408 393.028 1386.526 387.412 1389.224 382.071 C 1389.861 380.801 1389.64 379.269 1388.669 378.232 C 1387.699 377.195 1386.185 376.872 1384.876 377.424 C 1368.459 384.814 1352.742 393.669 1337.916 403.882 C 1337.452 404.197 1337.079 404.63 1336.838 405.137 C 1327.268 424.842 1322.088 446.388 1321.655 468.29 C 1321.655 472.036 1318.618 475.074 1314.871 475.074 C 1311.124 475.074 1308.087 472.036 1308.087 468.29 C 1308.158 455.873 1309.783 443.513 1312.924 431.5 C 1313.284 430.042 1312.642 428.52 1311.347 427.76 C 1310.051 427.001 1308.41 427.183 1307.313 428.209 C 1300.661 434.246 1294.321 440.618 1288.318 447.3 C 1287.948 447.719 1287.685 448.222 1287.551 448.765 C 1281.434 473.074 1277.043 497.784 1274.411 522.712 C 1274.33 524.014 1273.5 525.152 1272.284 525.626 C 1271.069 526.101 1269.688 525.827 1268.746 524.923 C 1261.598 518.701 1256.577 510.398 1254.384 501.179 C 1254.181 500.003 1253.357 499.028 1252.231 498.631 C 1251.105 498.234 1249.853 498.477 1248.957 499.266 C 1236.047 510.812 1203.368 549.753 1219.894 637.892 L 1248.658 661.907 C 1263.04 665.123 1284.526 664.54 1316.614 655.164 C 1318.006 654.759 1318.995 653.525 1319.086 652.078 C 1319.177 650.631 1318.352 649.282 1317.021 648.705 C 1307.259 644.287 1299.868 635.885 1296.73 625.64 C 1296.252 624.35 1296.6 622.899 1297.611 621.967 C 1298.622 621.035 1300.097 620.805 1301.343 621.386 C 1322.818 630.649 1346.948 631.694 1369.143 624.324 C 1398.282 603.052 1425.975 579.867 1452.038 554.922 C 1452.965 554.027 1453.293 552.678 1452.879 551.457 C 1452.465 550.237 1451.385 549.364 1450.105 549.217 C 1433.026 547.775 1416.778 541.222 1403.478 530.412 C 1402.385 529.421 1402.058 527.838 1402.668 526.495 C 1403.278 525.153 1404.686 524.358 1406.151 524.53 C 1423.07 527.365 1457.71 530.751 1477.689 515.778 C 1488.095 507.698 1497.826 498.784 1506.786 489.124 C 1507.822 488.053 1508.037 486.431 1507.317 485.126 C 1506.597 483.821 1505.11 483.139 1503.651 483.445 C 1488.439 486.805 1472.915 488.546 1457.336 488.642 C 1453.59 488.642 1450.552 485.605 1450.552 481.858 C 1450.552 478.111 1453.59 475.074 1457.336 475.074 C 1481.836 474.77 1506.113 470.388 1529.173 462.109 C 1529.716 461.911 1530.281 461.777 1530.855 461.709 C 1539.071 451.716 1546.459 442.171 1552.313 434.369 C 1565.373 416.163 1576.38 396.569 1585.135 375.945 C 1585.796 374.381 1585.199 372.569 1583.737 371.705 C 1575.651 366.888 1547.381 352.96 1491.257 352.96 L 1491.257 352.96 Z " fill="rgb(0,25,123)"/><path d=" M 1585.148 375.958 C 1585.046 376.18 1584.956 376.406 1584.877 376.637 C 1519.443 389.24 1457.858 416.954 1405.031 457.571 C 1351.721 498.71 1304.609 547.308 1265.143 601.868 C 1253.619 616.983 1242.973 632.748 1233.258 649.085 L 1219.894 637.892 C 1203.341 549.766 1236.04 510.826 1248.93 499.293 C 1249.816 498.481 1251.077 498.223 1252.211 498.62 C 1253.346 499.017 1254.17 500.005 1254.357 501.192 C 1256.564 510.411 1261.592 518.711 1268.739 524.937 C 1269.685 525.827 1271.06 526.089 1272.267 525.609 C 1273.473 525.129 1274.293 523.994 1274.37 522.698 C 1277.009 497.77 1281.407 473.06 1287.531 448.752 C 1287.669 448.226 1287.924 447.739 1288.277 447.327 C 1294.305 440.632 1300.667 434.247 1307.34 428.196 C 1308.447 427.202 1310.071 427.045 1311.347 427.807 C 1312.624 428.57 1313.254 430.075 1312.903 431.52 C 1309.761 443.526 1308.143 455.88 1308.087 468.29 C 1308.087 472.036 1311.124 475.074 1314.871 475.074 C 1318.618 475.074 1321.655 472.036 1321.655 468.29 C 1322.075 446.383 1327.261 424.83 1336.851 405.13 C 1337.097 404.633 1337.472 404.211 1337.937 403.909 C 1352.746 393.677 1368.46 384.821 1384.882 377.451 C 1386.186 376.856 1387.725 377.157 1388.707 378.201 C 1389.689 379.245 1389.897 380.799 1389.224 382.064 C 1386.511 387.4 1384.395 393.02 1382.915 398.821 C 1382.225 401.209 1382.897 403.784 1384.666 405.531 C 1386.435 407.278 1389.018 407.917 1391.398 407.197 C 1393.778 406.477 1395.573 404.512 1396.076 402.077 C 1399.997 389.082 1406.427 376.982 1415.004 366.461 C 1415.409 365.868 1416.009 365.435 1416.7 365.24 C 1440.788 357.401 1465.927 353.26 1491.257 352.96 C 1547.361 352.96 1575.651 366.868 1583.724 371.684 C 1585.213 372.543 1585.825 374.379 1585.148 375.958 Z " fill="rgb(112,130,253)"/><path d=" M 1204.697 736.885 C 1202.576 738.583 1199.647 738.851 1197.253 737.568 C 1194.858 736.284 1193.46 733.696 1193.7 730.99 C 1196.818 698.645 1205.689 667.117 1219.894 637.892 C 1242.831 592.018 1338.473 478.283 1428.979 435.991 C 1432.142 434.483 1435.933 435.633 1437.726 438.644 C 1439.519 441.654 1438.724 445.535 1435.892 447.598 C 1385.907 483.255 1302.09 554.909 1247.03 665.028 C 1239.996 679.359 1234.125 694.233 1229.473 709.504 C 1227.483 716.038 1223.564 721.817 1218.232 726.085 L 1204.697 736.885 Z " fill="rgb(70,69,85)"/></g></g><defs><filter id="af6qeBuXXFRsfAZGMTQi3GDuzR8lK0Yo" x="-200%" y="-200%" width="400%" height="400%" filterUnits="objectBoundingBox" color-interpolation-filters="sRGB"><feGaussianBlur xmlns="http://www.w3.org/2000/svg" in="SourceGraphic" stdDeviation="10.73402265709757"/><feOffset xmlns="http://www.w3.org/2000/svg" dx="15" dy="5" result="pf_100_offsetBlur"/><feFlood xmlns="http://www.w3.org/2000/svg" flood-color="#000000" flood-opacity="0.45"/><feComposite xmlns="http://www.w3.org/2000/svg" in2="pf_100_offsetBlur" operator="in" result="pf_100_dropShadow"/><feBlend xmlns="http://www.w3.org/2000/svg" in="SourceGraphic" in2="pf_100_dropShadow" mode="normal"/></filter></defs></g></svg>