<?xml version="1.0" encoding="UTF-8" standalone="no"?><!-- Generator: Gravit.io --><svg xmlns="http://www.w3.org/2000/svg" xmlns:xlink="http://www.w3.org/1999/xlink" style="isolation:isolate" viewBox="595 -296 1182 1820" width="1182pt" height="1820pt"><defs><clipPath id="_clipPath_2HDwcDfC5sIBiurtgfBza1JOmikAzb5M"><rect x="595" y="-296" width="1182" height="1820"/></clipPath></defs><g clip-path="url(#_clipPath_2HDwcDfC5sIBiurtgfBza1JOmikAzb5M)"><g><rect x="604" y="-296" width="1164" height="1820" transform="matrix(1,0,0,1,0,0)" fill="rgb(255,255,255)"/><g filter="url(#PIKUSgPOfsEsvWTAKEaQPjJ2uefeFi1s)"><g><path d=" M 1387.011 395.446 C 1369.549 412.908 1347.356 401.043 1340.146 393.833 L 1160.756 214.442 L 1146.341 211.763 L 1123.716 189.137 C 1119.552 184.974 1112.795 184.974 1108.632 189.137 L 926.622 371.147 C 922.459 375.31 922.459 382.067 926.622 386.23 L 1138.799 598.407 C 1159.59 619.198 1193.427 619.198 1214.218 598.407 L 1403.789 408.836 C 1407.957 404.668 1406.258 399.61 1402.095 395.446 C 1397.932 391.283 1391.174 391.283 1387.011 395.446 Z " fill="rgb(230,117,226)" fill-opacity="0.76"/></g><g><g><g><g><path d=" M 1108.632 249.472 L 986.957 371.147 C 982.794 375.31 982.794 382.067 986.957 386.23 L 1032.208 431.481 C 1036.371 435.644 1043.129 435.644 1047.292 431.481 L 1168.967 309.806 C 1173.13 305.643 1173.13 298.886 1168.967 294.723 L 1123.716 249.472 C 1119.552 245.309 1112.795 245.309 1108.632 249.472 L 1108.632 249.472 Z " fill="rgb(223,231,244)"/></g></g></g></g><path d=" M 1123.716 249.472 L 1168.967 294.723 C 1173.13 298.886 1173.13 305.643 1168.967 309.806 L 1108.129 370.644 L 1047.794 310.309 L 1108.632 249.472 C 1112.795 245.309 1119.552 245.309 1123.716 249.472 L 1123.716 249.472 Z " fill="rgb(199,207,225)"/><g><path d=" M 1215.223 356.063 L 1168.967 402.32 C 1164.801 406.485 1158.048 406.485 1153.883 402.32 C 1149.718 398.154 1149.718 391.401 1153.883 387.236 L 1200.139 340.979 C 1204.305 336.814 1211.058 336.814 1215.223 340.979 C 1219.388 345.144 1219.388 351.898 1215.223 356.063 Z " fill="rgb(70,69,85)"/></g><g><path d=" M 1138.799 432.487 L 1093.548 477.738 C 1089.383 481.903 1082.63 481.903 1078.465 477.738 C 1074.299 473.573 1074.299 466.819 1078.465 462.654 L 1123.716 417.403 C 1127.881 413.238 1134.634 413.238 1138.799 417.403 C 1142.964 421.568 1142.964 428.322 1138.799 432.487 Z " fill="rgb(89,108,118)"/></g><g><path d=" M 1260.474 401.314 L 1214.218 447.571 C 1210.052 451.736 1203.299 451.736 1199.134 447.571 C 1194.969 443.405 1194.969 436.652 1199.134 432.487 L 1245.39 386.23 C 1249.556 382.065 1256.309 382.065 1260.474 386.23 C 1264.639 390.395 1264.639 397.149 1260.474 401.314 Z " fill="rgb(70,69,85)"/></g><g><path d=" M 1305.725 446.565 L 1259.469 492.822 C 1255.303 496.987 1248.55 496.987 1244.385 492.822 C 1240.22 488.656 1240.22 481.903 1244.385 477.738 L 1290.641 431.481 C 1294.807 427.316 1301.56 427.316 1305.725 431.481 C 1309.89 435.646 1309.89 442.4 1305.725 446.565 Z " fill="rgb(70,69,85)"/></g><g><path d=" M 1315.781 330.924 L 1298.183 348.521 C 1294.018 352.686 1287.265 352.686 1283.1 348.521 L 1146.341 211.763 L 1186.34 171.764 C 1190.529 167.575 1197.405 167.335 1201.613 171.505 C 1205.82 175.673 1205.825 182.468 1201.628 186.643 C 1197.479 190.772 1197.708 197.767 1201.847 201.906 L 1315.781 315.84 C 1319.947 320.006 1319.946 326.758 1315.781 330.924 L 1315.781 330.924 Z " fill="rgb(221,156,219)"/></g><g><g><g><g><path d=" M 1229.301 522.989 L 1184.05 568.24 C 1179.885 572.405 1173.132 572.405 1168.967 568.24 L 1123.716 522.989 C 1119.55 518.824 1119.55 512.07 1123.716 507.905 L 1168.967 462.654 C 1173.132 458.489 1179.885 458.489 1184.05 462.654 L 1229.301 507.905 C 1233.467 512.071 1233.466 518.824 1229.301 522.989 Z " fill="rgb(223,231,244)"/></g></g></g></g><g><g><g><g><path d=" M 1343.412 408.834 L 1283.1 348.521 L 1298.183 333.438 C 1302.348 329.272 1302.348 322.519 1298.183 318.354 L 1187.821 207.992 C 1177.408 197.578 1177.408 180.696 1187.821 170.283 C 1198.234 159.869 1215.117 159.869 1225.53 170.283 L 1403.784 348.447 C 1420.464 365.119 1420.468 392.157 1403.792 408.833 C 1387.118 425.507 1360.086 425.507 1343.412 408.834 L 1343.412 408.834 Z " fill="rgb(174,82,122)"/></g></g></g></g></g><defs><filter id="PIKUSgPOfsEsvWTAKEaQPjJ2uefeFi1s" x="-200%" y="-200%" width="400%" height="400%" filterUnits="objectBoundingBox" color-interpolation-filters="sRGB"><feGaussianBlur xmlns="http://www.w3.org/2000/svg" in="SourceGraphic" stdDeviation="10.73402265709757"/><feOffset xmlns="http://www.w3.org/2000/svg" dx="15" dy="5" result="pf_100_offsetBlur"/><feFlood xmlns="http://www.w3.org/2000/svg" flood-color="#000000" flood-opacity="0.45"/><feComposite xmlns="http://www.w3.org/2000/svg" in2="pf_100_offsetBlur" operator="in" result="pf_100_dropShadow"/><feBlend xmlns="http://www.w3.org/2000/svg" in="SourceGraphic" in2="pf_100_dropShadow" mode="normal"/></filter></defs><g filter="url(#ZoKx5EGqZdJXtheboOmjcJQOROzoff1c)"><g><path d=" M 1381.532 162.473 C 1363.516 162.671 1345.636 165.616 1328.509 171.205 C 1328.031 171.357 1327.612 171.651 1327.307 172.05 C 1321.228 179.554 1316.657 188.163 1313.846 197.403 C 1313.207 199.99 1310.591 201.569 1308.004 200.93 C 1305.416 200.29 1303.837 197.675 1304.477 195.087 C 1305.544 190.967 1307.049 186.974 1308.969 183.175 C 1309.422 182.272 1309.264 181.183 1308.574 180.445 C 1307.884 179.708 1306.807 179.478 1305.876 179.87 C 1294.201 185.126 1283.024 191.424 1272.48 198.686 C 1272.149 198.911 1271.885 199.219 1271.713 199.579 C 1264.907 213.593 1261.223 228.916 1260.915 244.492 C 1260.915 247.156 1258.755 249.317 1256.09 249.317 C 1253.426 249.317 1251.266 247.156 1251.266 244.492 C 1251.316 235.661 1252.472 226.871 1254.706 218.328 C 1254.962 217.291 1254.505 216.209 1253.584 215.669 C 1252.663 215.128 1251.496 215.258 1250.716 215.988 C 1245.985 220.281 1241.476 224.812 1237.207 229.564 C 1236.944 229.863 1236.756 230.22 1236.661 230.606 C 1232.311 247.894 1229.188 265.467 1227.316 283.195 C 1227.259 284.122 1226.669 284.931 1225.804 285.268 C 1224.939 285.606 1223.957 285.411 1223.288 284.768 C 1218.204 280.343 1214.633 274.438 1213.074 267.882 C 1212.929 267.045 1212.343 266.352 1211.543 266.07 C 1210.742 265.788 1209.851 265.96 1209.214 266.521 C 1200.033 274.733 1176.792 302.426 1188.545 365.108 L 1209.002 382.188 C 1219.23 384.475 1234.51 384.06 1257.33 377.392 C 1258.32 377.104 1259.023 376.226 1259.088 375.197 C 1259.153 374.168 1258.566 373.209 1257.62 372.799 C 1250.677 369.657 1245.421 363.681 1243.189 356.395 C 1242.849 355.478 1243.097 354.446 1243.816 353.783 C 1244.535 353.12 1245.583 352.957 1246.47 353.37 C 1261.742 359.957 1278.903 360.701 1294.688 355.459 C 1315.41 340.331 1335.105 323.843 1353.64 306.103 C 1354.3 305.466 1354.532 304.506 1354.238 303.638 C 1353.944 302.77 1353.176 302.15 1352.265 302.045 C 1340.119 301.019 1328.564 296.359 1319.105 288.671 C 1318.328 287.967 1318.096 286.841 1318.53 285.886 C 1318.964 284.931 1319.965 284.366 1321.006 284.488 C 1333.039 286.505 1357.674 288.913 1371.882 278.264 C 1379.283 272.518 1386.204 266.179 1392.575 259.308 C 1393.312 258.547 1393.466 257.393 1392.953 256.465 C 1392.441 255.538 1391.384 255.053 1390.346 255.27 C 1379.528 257.659 1368.487 258.898 1357.408 258.966 C 1354.744 258.966 1352.584 256.806 1352.584 254.141 C 1352.584 251.477 1354.744 249.317 1357.408 249.317 C 1374.831 249.1 1392.097 245.984 1408.497 240.097 C 1408.883 239.956 1409.285 239.86 1409.693 239.812 C 1415.536 232.705 1420.79 225.917 1424.954 220.369 C 1434.241 207.421 1442.069 193.486 1448.295 178.819 C 1448.765 177.706 1448.341 176.418 1447.301 175.803 C 1441.55 172.378 1421.446 162.473 1381.532 162.473 L 1381.532 162.473 Z " fill="rgb(0,25,123)"/><path d=" M 1448.305 178.828 C 1448.232 178.986 1448.168 179.147 1448.112 179.311 C 1401.577 188.274 1357.779 207.983 1320.21 236.869 C 1282.297 266.126 1248.793 300.687 1220.726 339.489 C 1212.53 350.239 1204.959 361.451 1198.05 373.069 L 1188.545 365.108 C 1176.773 302.436 1200.028 274.742 1209.195 266.541 C 1209.825 265.963 1210.722 265.779 1211.529 266.062 C 1212.335 266.344 1212.922 267.047 1213.054 267.891 C 1214.624 274.447 1218.2 280.35 1223.283 284.778 C 1223.955 285.411 1224.933 285.597 1225.792 285.256 C 1226.65 284.915 1227.233 284.108 1227.287 283.186 C 1229.164 265.457 1232.292 247.884 1236.647 230.597 C 1236.745 230.223 1236.926 229.877 1237.178 229.584 C 1241.464 224.823 1245.989 220.282 1250.735 215.978 C 1251.522 215.271 1252.677 215.159 1253.585 215.702 C 1254.492 216.244 1254.941 217.315 1254.691 218.342 C 1252.457 226.88 1251.306 235.666 1251.266 244.492 C 1251.266 247.156 1253.426 249.317 1256.09 249.317 C 1258.755 249.317 1260.915 247.156 1260.915 244.492 C 1261.214 228.912 1264.902 213.585 1271.722 199.574 C 1271.897 199.221 1272.164 198.921 1272.494 198.706 C 1283.026 191.429 1294.202 185.131 1305.881 179.89 C 1306.808 179.466 1307.902 179.681 1308.601 180.423 C 1309.299 181.165 1309.447 182.27 1308.969 183.17 C 1307.039 186.965 1305.534 190.962 1304.482 195.087 C 1303.991 196.786 1304.469 198.617 1305.727 199.86 C 1306.985 201.102 1308.822 201.557 1310.515 201.044 C 1312.207 200.532 1313.484 199.135 1313.842 197.403 C 1316.63 188.161 1321.203 179.556 1327.302 172.074 C 1327.59 171.652 1328.017 171.345 1328.509 171.205 C 1345.64 165.63 1363.517 162.686 1381.532 162.473 C 1421.432 162.473 1441.55 172.363 1447.292 175.789 C 1448.351 176.399 1448.786 177.705 1448.305 178.828 Z " fill="rgb(112,130,253)"/><path d=" M 1177.738 435.51 C 1176.229 436.717 1174.146 436.908 1172.443 435.995 C 1170.741 435.083 1169.746 433.242 1169.917 431.317 C 1172.135 408.315 1178.443 385.893 1188.545 365.108 C 1204.857 332.484 1272.875 251.599 1337.241 221.522 C 1339.491 220.45 1342.187 221.267 1343.462 223.408 C 1344.737 225.549 1344.172 228.309 1342.158 229.777 C 1306.609 255.135 1247.001 306.093 1207.844 384.407 C 1202.841 394.599 1198.666 405.177 1195.358 416.038 C 1193.942 420.684 1191.156 424.794 1187.363 427.829 L 1177.738 435.51 Z " fill="rgb(70,69,85)"/></g></g><defs><filter id="ZoKx5EGqZdJXtheboOmjcJQOROzoff1c" x="-200%" y="-200%" width="400%" height="400%" filterUnits="objectBoundingBox" color-interpolation-filters="sRGB"><feGaussianBlur xmlns="http://www.w3.org/2000/svg" in="SourceGraphic" stdDeviation="10.73402265709757"/><feOffset xmlns="http://www.w3.org/2000/svg" dx="15" dy="5" result="pf_100_offsetBlur"/><feFlood xmlns="http://www.w3.org/2000/svg" flood-color="#000000" flood-opacity="0.45"/><feComposite xmlns="http://www.w3.org/2000/svg" in2="pf_100_offsetBlur" operator="in" result="pf_100_dropShadow"/><feBlend xmlns="http://www.w3.org/2000/svg" in="SourceGraphic" in2="pf_100_dropShadow" mode="normal"/></filter></defs><text transform="matrix(1,0,0,1,966.688,1377)" style="font-family:'Parisienne';font-weight:400;font-size:128px;font-style:normal;fill:#000000;stroke:#000000;stroke-width:1;">Aletheia</text></g></g></svg>